<?xml version="1.0" encoding="utf-8"?>
<!-- Generator: Adobe Illustrator 24.0.0, SVG Export Plug-In . SVG Version: 6.00 Build 0)  -->
<svg version="1.1" id="Livello_1" xmlns="http://www.w3.org/2000/svg" xmlns:xlink="http://www.w3.org/1999/xlink" x="0px" y="0px"
	 viewBox="0 0 121.3 35.1" style="enable-background:new 0 0 121.3 35.1;" xml:space="preserve">
<style type="text/css">
	.st0{fill-rule:evenodd;clip-rule:evenodd;fill:#FF5A5F;}
	.st1{fill:#FFFFFF;}
	.st2{fill:#22B4CE;}
</style>
<g>
	<g>
		<path class="st1" d="M34.4,26V8.7h3.8v6.5c0.4-0.6,0.9-1,1.6-1.3c0.6-0.3,1.3-0.5,2.1-0.5c0.8,0,1.5,0.2,2.2,0.5
			c0.7,0.3,1.3,0.8,1.8,1.4c0.5,0.6,0.9,1.3,1.2,2c0.3,0.8,0.4,1.6,0.4,2.5c0,0.9-0.1,1.8-0.4,2.6c-0.3,0.8-0.7,1.5-1.2,2.1
			s-1.1,1.1-1.9,1.4c-0.7,0.3-1.5,0.5-2.3,0.5c-0.8,0-1.5-0.2-2.1-0.5s-1.1-0.8-1.5-1.4L37.8,26H34.4z M40.8,23c0.5,0,1-0.1,1.4-0.4
			c0.4-0.3,0.7-0.6,1-1.1c0.2-0.5,0.4-1,0.4-1.6c0-0.6-0.1-1.1-0.4-1.6s-0.6-0.8-1-1.1c-0.4-0.3-0.9-0.4-1.4-0.4
			c-0.5,0-1,0.1-1.4,0.4c-0.4,0.3-0.7,0.6-1,1.1c-0.2,0.5-0.4,1-0.4,1.6c0,0.6,0.1,1.1,0.4,1.6c0.2,0.5,0.6,0.8,1,1.1
			C39.8,22.8,40.3,23,40.8,23z"/>
		<path class="st1" d="M54.6,26.4c-0.9,0-1.8-0.2-2.6-0.5c-0.8-0.3-1.5-0.8-2.1-1.4c-0.6-0.6-1.1-1.3-1.4-2.1
			c-0.3-0.8-0.5-1.6-0.5-2.6c0-0.9,0.2-1.8,0.5-2.6c0.3-0.8,0.8-1.5,1.4-2.1c0.6-0.6,1.3-1.1,2.1-1.4c0.8-0.3,1.7-0.5,2.6-0.5
			c0.9,0,1.8,0.2,2.6,0.5c0.8,0.3,1.5,0.8,2.1,1.4c0.6,0.6,1.1,1.3,1.4,2.1c0.3,0.8,0.5,1.6,0.5,2.6c0,0.9-0.2,1.8-0.5,2.6
			c-0.3,0.8-0.8,1.5-1.4,2.1s-1.3,1-2.1,1.4C56.4,26.2,55.6,26.4,54.6,26.4z M54.7,23c0.5,0,1-0.1,1.4-0.4c0.4-0.3,0.7-0.6,1-1.1
			c0.2-0.5,0.4-1,0.4-1.6c0-0.6-0.1-1.1-0.4-1.6c-0.2-0.5-0.6-0.8-1-1.1c-0.4-0.3-0.9-0.4-1.4-0.4c-0.5,0-1,0.1-1.4,0.4
			s-0.7,0.6-1,1.1c-0.2,0.5-0.4,1-0.4,1.6c0,0.6,0.1,1.1,0.4,1.6c0.2,0.5,0.6,0.8,1,1.1C53.7,22.8,54.2,23,54.7,23z"/>
		<path class="st1" d="M68.5,26.4c-0.9,0-1.8-0.2-2.6-0.5c-0.8-0.3-1.5-0.8-2.1-1.4c-0.6-0.6-1.1-1.3-1.4-2.1
			c-0.3-0.8-0.5-1.6-0.5-2.6c0-0.9,0.2-1.8,0.5-2.6c0.3-0.8,0.8-1.5,1.4-2.1c0.6-0.6,1.3-1.1,2.1-1.4c0.8-0.3,1.7-0.5,2.6-0.5
			c0.9,0,1.8,0.2,2.6,0.5c0.8,0.3,1.5,0.8,2.1,1.4c0.6,0.6,1.1,1.3,1.4,2.1c0.3,0.8,0.5,1.6,0.5,2.6c0,0.9-0.2,1.8-0.5,2.6
			c-0.3,0.8-0.8,1.5-1.4,2.1s-1.3,1-2.1,1.4S69.4,26.4,68.5,26.4z M68.5,23c0.5,0,1-0.1,1.4-0.4c0.4-0.3,0.7-0.6,1-1.1
			c0.2-0.5,0.4-1,0.4-1.6c0-0.6-0.1-1.1-0.4-1.6c-0.2-0.5-0.6-0.8-1-1.1c-0.4-0.3-0.9-0.4-1.4-0.4s-1,0.1-1.4,0.4s-0.7,0.6-1,1.1
			s-0.4,1-0.4,1.6c0,0.6,0.1,1.1,0.4,1.6c0.2,0.5,0.6,0.8,1,1.1C67.5,22.8,68,23,68.5,23z"/>
		<path class="st1" d="M76.1,26V8.7h3.8V26H76.1z"/>
		<path class="st1" d="M81.3,26V8.7h3.8v6.5c0.4-0.6,0.9-1,1.6-1.3c0.6-0.3,1.3-0.5,2.1-0.5c0.8,0,1.5,0.2,2.2,0.5
			c0.7,0.3,1.3,0.8,1.8,1.4s0.9,1.3,1.2,2c0.3,0.8,0.4,1.6,0.4,2.5c0,0.9-0.1,1.8-0.4,2.6s-0.7,1.5-1.2,2.1s-1.1,1.1-1.9,1.4
			s-1.5,0.5-2.3,0.5c-0.8,0-1.5-0.2-2.1-0.5c-0.6-0.3-1.1-0.8-1.5-1.4L84.8,26H81.3z M87.8,23c0.5,0,1-0.1,1.4-0.4
			c0.4-0.3,0.7-0.6,1-1.1c0.2-0.5,0.4-1,0.4-1.6c0-0.6-0.1-1.1-0.4-1.6c-0.2-0.5-0.6-0.8-1-1.1c-0.4-0.3-0.9-0.4-1.4-0.4
			s-1,0.1-1.4,0.4s-0.7,0.6-1,1.1s-0.4,1-0.4,1.6c0,0.6,0.1,1.1,0.4,1.6c0.2,0.5,0.6,0.8,1,1.1C86.8,22.8,87.2,23,87.8,23z"/>
		<path class="st1" d="M95.3,26V13.7h3.5l0.1,1.6c0.4-0.6,0.8-1.1,1.5-1.4c0.6-0.4,1.3-0.5,2.1-0.5c0.9,0,1.6,0.2,2.3,0.6
			s1.2,1,1.5,1.8c0.4,0.8,0.5,1.7,0.5,2.8V26h-3.8v-6.9c0-0.7-0.2-1.3-0.5-1.7c-0.3-0.4-0.8-0.6-1.4-0.6c-0.4,0-0.8,0.1-1.1,0.3
			c-0.3,0.2-0.6,0.5-0.8,0.8c-0.2,0.3-0.3,0.7-0.3,1.2v7H95.3z"/>
		<path class="st1" d="M108.3,26V8.7h3.8v6.5c0.4-0.6,0.9-1,1.6-1.3c0.6-0.3,1.3-0.5,2.1-0.5c0.8,0,1.5,0.2,2.2,0.5
			c0.7,0.3,1.3,0.8,1.8,1.4s0.9,1.3,1.2,2c0.3,0.8,0.4,1.6,0.4,2.5c0,0.9-0.1,1.8-0.4,2.6s-0.7,1.5-1.2,2.1s-1.1,1.1-1.9,1.4
			s-1.5,0.5-2.3,0.5c-0.8,0-1.5-0.2-2.1-0.5c-0.6-0.3-1.1-0.8-1.5-1.4l-0.1,1.5H108.3z M114.8,23c0.5,0,1-0.1,1.4-0.4
			c0.4-0.3,0.7-0.6,1-1.1c0.2-0.5,0.4-1,0.4-1.6c0-0.6-0.1-1.1-0.4-1.6c-0.2-0.5-0.6-0.8-1-1.1c-0.4-0.3-0.9-0.4-1.4-0.4
			s-1,0.1-1.4,0.4s-0.7,0.6-1,1.1s-0.4,1-0.4,1.6c0,0.6,0.1,1.1,0.4,1.6c0.2,0.5,0.6,0.8,1,1.1C113.8,22.8,114.3,23,114.8,23z"/>
	</g>
	<path class="st1" d="M21.1,1.1C19.6,0.4,17.7,0,15.6,0H0v35.1h15.8c2.4,0,4.4-0.4,6.2-1.2c1.7-0.8,3.1-1.9,4-3.3
		c0.9-1.4,1.4-3.1,1.4-5.1c0-1.8-0.5-3.5-1.4-5.1c-1-1.7-2.5-2.8-4-4c0.1,0.1,1.9-2.1,2.1-2.3c0.7-1,1.2-2.1,1.5-3.3
		c0.5-2.2,0.3-4.8-1-6.7C23.8,2.8,22.6,1.8,21.1,1.1z M20.2,15.1c0,0-1.6-1.1-2.1-1.4c-2.1-1.3-3.9-2.3-5.2-2.5c-1-0.2-2-0.3-3-0.2
		c-0.9,0.1-1.7,0.5-2.3,0.9c-1.6,1.1-2.5,2.9-2.5,4.9c0,2,0.9,3.8,2.5,4.9c0.7,0.5,1.5,0.8,2.4,0.9c0.9,0.1,2,0.1,2.9-0.2
		c1.7-0.4,3.6-1.3,5.6-2.7c0.5-0.4,2.1-1.7,2.1-1.7c0,0,1.2,1,1.3,1.1c0.6,0.5,1.1,1.1,1.6,1.7c1,1.3,1.4,2.9,1.4,4.6
		c0,1.6-0.4,3-1.1,4.1c-0.7,1.1-1.8,2-3.2,2.6c-1.4,0.6-3,0.9-4.9,0.9H2.3V2h13.3c2.4,0,4.4,0.6,5.8,1.8c1.9,1.6,2.7,4.5,1.9,6.8
		c-0.3,0.9-0.9,1.7-1.4,2.5C21.4,13.8,20.9,14.5,20.2,15.1z M18.8,16.5l-0.4,0.3c-2.6,2-4.5,3.1-6,3.4c-0.5,0.1-1,0.2-1.4,0.2
		c-0.3,0-0.5,0-0.7-0.1c-0.5-0.1-1-0.2-1.4-0.5c-1-0.7-1.5-1.8-1.5-3c0-1.3,0.6-2.4,1.5-3c0.4-0.3,0.9-0.5,1.5-0.5
		c0.6-0.1,1.3-0.1,2.1,0.1c2,0.5,4,1.4,6,2.9L18.8,16.5z"/>
</g>
</svg>
